<svg width="56" height="56" viewBox="0 0 56 56" fill="none" xmlns="http://www.w3.org/2000/svg">
<rect width="56" height="56" rx="8.75" fill="#4EA366"/>
<path d="M36.8225 13.0769C36.3863 13.0263 35.9412 13 35.5 13V14.25C35.8931 14.25 36.2894 14.2731 36.6775 14.3181L36.8225 13.0769Z" fill="white"/>
<path d="M38.1466 13.3131L37.8535 14.5281C42.356 15.6144 45.5004 19.6119 45.5004 24.25H46.7504C46.7504 19.0319 43.2123 14.535 38.1466 13.3131Z" fill="white"/>
<path d="M42.3306 39.6425C42.2525 39.4475 42.0819 39.3044 41.8756 39.2625C41.67 39.2213 41.4569 39.2844 41.3081 39.4325L40.8125 39.9288L36.3838 35.5L41.5669 30.3169C44.9125 26.9713 44.9125 21.5282 41.5669 18.1832C38.3656 14.9819 33.2425 14.8444 29.875 17.7707C26.6656 14.98 21.8625 14.9825 18.6462 17.7625L17.375 16.4913V15.5C17.375 15.3344 17.3094 15.175 17.1919 15.0582L13.4419 11.3082C13.2625 11.1288 12.9944 11.075 12.7606 11.1725C12.5275 11.2694 12.375 11.4975 12.375 11.75V14.25H9.875C9.6225 14.25 9.39437 14.4025 9.2975 14.6357C9.20062 14.8694 9.25437 15.1382 9.43312 15.3169L13.1831 19.0669C13.3 19.1844 13.4594 19.25 13.625 19.25H14.6162L16.335 20.9688C15.3681 23.3119 15.4887 26.0025 16.6769 28.2538C16.1112 30.2544 16.6112 32.4957 18.1831 34.0669L25.6831 41.5669C25.805 41.6888 25.965 41.75 26.125 41.75C26.285 41.75 26.445 41.6888 26.5669 41.5669L28 40.1338L29.4331 41.5669C29.555 41.6888 29.715 41.75 29.875 41.75C30.035 41.75 30.195 41.6888 30.3169 41.5669L33.625 38.2588L38.0537 42.6875L37.5581 43.1832C37.4094 43.3319 37.3456 43.545 37.3881 43.7507C37.43 43.9563 37.5731 44.1275 37.7681 44.2057L44.0181 46.7057C44.0931 46.7357 44.1719 46.75 44.25 46.75C44.4125 46.75 44.5725 46.6863 44.6919 46.5669C44.8688 46.39 44.9231 46.125 44.8306 45.8925L42.3306 39.6425ZM11.3837 15.5H13C13.345 15.5 13.625 15.22 13.625 14.875V13.2588L16.125 15.7588V18H13.8837L11.3837 15.5ZM16.75 19.25C17.095 19.25 17.375 18.97 17.375 18.625V18.2588L30.8662 31.75L29.875 32.7413L16.3837 19.25H16.75ZM17.3069 21.9407L19.8787 24.5125C19.2544 24.8038 18.6762 25.1907 18.1837 25.6838C17.865 26.0025 17.5944 26.3513 17.3631 26.7175C16.8162 25.1794 16.7944 23.4919 17.3069 21.9407ZM26.125 40.2413L19.0669 33.1832C17.2431 31.3594 17.2431 28.3913 19.0669 26.5669C19.5669 26.0669 20.1725 25.6975 20.8325 25.4663L29.4331 34.0669C29.555 34.1888 29.715 34.25 29.875 34.25C30.035 34.25 30.195 34.1888 30.3169 34.0669L32.1919 32.1919C32.4363 31.9475 32.4363 31.5525 32.1919 31.3082L27.0419 26.1582C28.8744 24.76 31.5087 24.8932 33.1831 26.5669C35.0069 28.3907 35.0069 31.3588 33.1831 33.1832L26.125 40.2413ZM29.875 40.2413L28.8837 39.25L34.0669 34.0669L37.8169 30.3169L36.9331 29.4332L35.7481 30.6182C35.9681 28.8632 35.4112 27.0282 34.0669 25.6832C31.905 23.5213 28.475 23.3825 26.1487 25.265L19.5312 18.6475C22.4081 16.2219 26.7237 16.3588 29.4331 19.0669C29.6775 19.3113 30.0725 19.3113 30.3169 19.0669C33.175 16.2094 37.825 16.2094 40.6831 19.0669C43.5412 21.925 43.5412 26.575 40.6831 29.4332L35.0581 35.0582L33.1831 36.9332L29.875 40.2413ZM34.5088 37.375L35.5 36.3838L39.9287 40.8125L38.9375 41.8038L34.5088 37.375ZM39.1119 43.3969L41.5212 40.9875L43.1275 45.0038L39.1119 43.3969Z" fill="white"/>
<path d="M38.8072 27.5585L37.8698 28.4958L38.7537 29.3797L39.691 28.4424L38.8072 27.5585Z" fill="white"/>
<path d="M28.1823 34.4332L25.0573 37.5581L25.9412 38.442L29.0661 35.317L28.1823 34.4332Z" fill="white"/>
<path d="M14.8969 29.2981L13.6506 29.2025C13.6338 29.4244 13.625 29.6488 13.625 29.875C13.625 32.2806 14.5812 34.5225 16.3175 36.1894L17.1831 35.2875C15.695 33.8588 14.875 31.9369 14.875 29.875C14.875 29.6806 14.8825 29.4881 14.8969 29.2981Z" fill="white"/>
<path d="M15.45 26.9907L14.2963 26.5088C14.115 26.9432 13.9681 27.3963 13.8594 27.8557L15.0756 28.1432C15.1694 27.7507 15.295 27.3625 15.45 26.9907Z" fill="white"/>
</svg>
